<svg xmlns="http://www.w3.org/2000/svg" viewBox="0 0 320 80" width="100%" height="100%" preserveAspectRatio="xMidYMid meet">
    <defs>
        <linearGradient id="cloudGradient" x1="0%" y1="0%" x2="100%" y2="100%">
            <stop offset="0%" stop-color="#4FACFE" />
            <stop offset="100%" stop-color="#00F2FE" />
        </linearGradient>

        <linearGradient id="textGradient" x1="0%" y1="0%" x2="100%" y2="0%">
            <stop offset="0%" stop-color="#4FACFE" />
            <stop offset="50%" stop-color="#2B7EE0" />
            <stop offset="100%" stop-color="#00F2FE" />
        </linearGradient>
    </defs>

    <g transform="translate(15, 16) scale(2.0)">
        <path d="M19.35 10.04A7.49 7.49 0 0 0 12 4C9.11 4 6.6 5.64 5.35 8.04A5.994 5.994 0 0 0 0 14c0 3.31 2.69 6 6 6h13c2.76 0 5-2.24 5-5 0-2.64-2.05-4.78-4.65-4.96z" fill="url(#cloudGradient)" />

        <rect x="10" y="6" width="4" height="12" rx="1.5" fill="#FFFFFF" />
        <rect x="6" y="10" width="12" height="4" rx="1.5" fill="#FFFFFF" />
    </g>

    <g transform="translate(85, 48)">
        <text font-family="system-ui, -apple-system, 'Segoe UI', Roboto, Helvetica, Arial, sans-serif" font-size="28" font-weight="800" fill="url(#textGradient)" letter-spacing="1.5">
            Cloud Health
        </text>
    </g>
</svg>